<?xml version="1.0" encoding="UTF-8" standalone="no"?>
<!DOCTYPE svg PUBLIC "-//W3C//DTD SVG 1.1//EN"
 "http://www.w3.org/Graphics/SVG/1.1/DTD/svg11.dtd">
<!-- Generated by graphviz version 2.40.1 (20161225.0304)
 -->
<!-- Title: Tree Pages: 1 -->
<svg width="622pt" height="671pt"
 viewBox="0.00 0.00 622.00 671.00" xmlns="http://www.w3.org/2000/svg" xmlns:xlink="http://www.w3.org/1999/xlink">
<g id="graph0" class="graph" transform="scale(1 1) rotate(0) translate(4 667)">
<title>Tree</title>
<polygon fill="#ffffff" stroke="transparent" points="-4,4 -4,-667 618,-667 618,4 -4,4"/>
<!-- 0 -->
<g id="node1" class="node">
<title>0</title>
<path fill="#f7f3fd" stroke="#000000" d="M320.5,-663C320.5,-663 204.5,-663 204.5,-663 198.5,-663 192.5,-657 192.5,-651 192.5,-651 192.5,-592 192.5,-592 192.5,-586 198.5,-580 204.5,-580 204.5,-580 320.5,-580 320.5,-580 326.5,-580 332.5,-586 332.5,-592 332.5,-592 332.5,-651 332.5,-651 332.5,-657 326.5,-663 320.5,-663"/>
<text text-anchor="start" x="207" y="-647.8" font-family="Helvetica,sans-Serif" font-size="14.00" fill="#000000">petal.length ≤ 2.6</text>
<text text-anchor="start" x="224.5" y="-632.8" font-family="Helvetica,sans-Serif" font-size="14.00" fill="#000000">gini = 0.665</text>
<text text-anchor="start" x="214.5" y="-617.8" font-family="Helvetica,sans-Serif" font-size="14.00" fill="#000000">samples = 120</text>
<text text-anchor="start" x="200.5" y="-602.8" font-family="Helvetica,sans-Serif" font-size="14.00" fill="#000000">value = [39, 37, 44]</text>
<text text-anchor="start" x="235" y="-587.8" font-family="Helvetica,sans-Serif" font-size="14.00" fill="#000000">class = r</text>
</g>
<!-- 1 -->
<g id="node2" class="node">
<title>1</title>
<path fill="#e58139" stroke="#000000" d="M240,-536.5C240,-536.5 141,-536.5 141,-536.5 135,-536.5 129,-530.5 129,-524.5 129,-524.5 129,-480.5 129,-480.5 129,-474.5 135,-468.5 141,-468.5 141,-468.5 240,-468.5 240,-468.5 246,-468.5 252,-474.5 252,-480.5 252,-480.5 252,-524.5 252,-524.5 252,-530.5 246,-536.5 240,-536.5"/>
<text text-anchor="start" x="161" y="-521.3" font-family="Helvetica,sans-Serif" font-size="14.00" fill="#000000">gini = 0.0</text>
<text text-anchor="start" x="146.5" y="-506.3" font-family="Helvetica,sans-Serif" font-size="14.00" fill="#000000">samples = 39</text>
<text text-anchor="start" x="137" y="-491.3" font-family="Helvetica,sans-Serif" font-size="14.00" fill="#000000">value = [39, 0, 0]</text>
<text text-anchor="start" x="161.5" y="-476.3" font-family="Helvetica,sans-Serif" font-size="14.00" fill="#000000">class = v</text>
</g>
<!-- 0&#45;&gt;1 -->
<g id="edge1" class="edge">
<title>0&#45;&gt;1</title>
<path fill="none" stroke="#000000" d="M237.3179,-579.8796C230.5983,-568.7735 223.3243,-556.7513 216.5586,-545.5691"/>
<polygon fill="#000000" stroke="#000000" points="219.4332,-543.5589 211.262,-536.8149 213.4441,-547.1826 219.4332,-543.5589"/>
<text text-anchor="middle" x="205.2883" y="-557.3908" font-family="Helvetica,sans-Serif" font-size="14.00" fill="#000000">True</text>
</g>
<!-- 2 -->
<g id="node3" class="node">
<title>2</title>
<path fill="#ebe0fb" stroke="#000000" d="M389,-544C389,-544 282,-544 282,-544 276,-544 270,-538 270,-532 270,-532 270,-473 270,-473 270,-467 276,-461 282,-461 282,-461 389,-461 389,-461 395,-461 401,-467 401,-473 401,-473 401,-532 401,-532 401,-538 395,-544 389,-544"/>
<text text-anchor="start" x="279" y="-528.8" font-family="Helvetica,sans-Serif" font-size="14.00" fill="#000000">petal.width ≤ 1.65</text>
<text text-anchor="start" x="297.5" y="-513.8" font-family="Helvetica,sans-Serif" font-size="14.00" fill="#000000">gini = 0.496</text>
<text text-anchor="start" x="291.5" y="-498.8" font-family="Helvetica,sans-Serif" font-size="14.00" fill="#000000">samples = 81</text>
<text text-anchor="start" x="278" y="-483.8" font-family="Helvetica,sans-Serif" font-size="14.00" fill="#000000">value = [0, 37, 44]</text>
<text text-anchor="start" x="308" y="-468.8" font-family="Helvetica,sans-Serif" font-size="14.00" fill="#000000">class = r</text>
</g>
<!-- 0&#45;&gt;2 -->
<g id="edge2" class="edge">
<title>0&#45;&gt;2</title>
<path fill="none" stroke="#000000" d="M288.0319,-579.8796C293.391,-571.1434 299.0979,-561.8404 304.6282,-552.8253"/>
<polygon fill="#000000" stroke="#000000" points="307.6135,-554.6522 309.8592,-544.2981 301.6467,-550.9919 307.6135,-554.6522"/>
<text text-anchor="middle" x="315.6839" y="-564.9101" font-family="Helvetica,sans-Serif" font-size="14.00" fill="#000000">False</text>
</g>
<!-- 3 -->
<g id="node4" class="node">
<title>3</title>
<path fill="#4fe88f" stroke="#000000" d="M314,-425C314,-425 203,-425 203,-425 197,-425 191,-419 191,-413 191,-413 191,-354 191,-354 191,-348 197,-342 203,-342 203,-342 314,-342 314,-342 320,-342 326,-348 326,-354 326,-354 326,-413 326,-413 326,-419 320,-425 314,-425"/>
<text text-anchor="start" x="199" y="-409.8" font-family="Helvetica,sans-Serif" font-size="14.00" fill="#000000">petal.length ≤ 4.95</text>
<text text-anchor="start" x="225" y="-394.8" font-family="Helvetica,sans-Serif" font-size="14.00" fill="#000000">gini = 0.18</text>
<text text-anchor="start" x="214.5" y="-379.8" font-family="Helvetica,sans-Serif" font-size="14.00" fill="#000000">samples = 40</text>
<text text-anchor="start" x="205" y="-364.8" font-family="Helvetica,sans-Serif" font-size="14.00" fill="#000000">value = [0, 36, 4]</text>
<text text-anchor="start" x="229.5" y="-349.8" font-family="Helvetica,sans-Serif" font-size="14.00" fill="#000000">class = a</text>
</g>
<!-- 2&#45;&gt;3 -->
<g id="edge3" class="edge">
<title>2&#45;&gt;3</title>
<path fill="none" stroke="#000000" d="M308.5691,-460.8796C302.9163,-452.1434 296.8967,-442.8404 291.0634,-433.8253"/>
<polygon fill="#000000" stroke="#000000" points="293.9169,-431.7924 285.5458,-425.2981 288.0399,-435.5952 293.9169,-431.7924"/>
</g>
<!-- 10 -->
<g id="node11" class="node">
<title>10</title>
<path fill="#843ee6" stroke="#000000" d="M467,-425C467,-425 356,-425 356,-425 350,-425 344,-419 344,-413 344,-413 344,-354 344,-354 344,-348 350,-342 356,-342 356,-342 467,-342 467,-342 473,-342 479,-348 479,-354 479,-354 479,-413 479,-413 479,-419 473,-425 467,-425"/>
<text text-anchor="start" x="352" y="-409.8" font-family="Helvetica,sans-Serif" font-size="14.00" fill="#000000">petal.length ≤ 4.85</text>
<text text-anchor="start" x="373.5" y="-394.8" font-family="Helvetica,sans-Serif" font-size="14.00" fill="#000000">gini = 0.048</text>
<text text-anchor="start" x="367.5" y="-379.8" font-family="Helvetica,sans-Serif" font-size="14.00" fill="#000000">samples = 41</text>
<text text-anchor="start" x="358" y="-364.8" font-family="Helvetica,sans-Serif" font-size="14.00" fill="#000000">value = [0, 1, 40]</text>
<text text-anchor="start" x="384" y="-349.8" font-family="Helvetica,sans-Serif" font-size="14.00" fill="#000000">class = r</text>
</g>
<!-- 2&#45;&gt;10 -->
<g id="edge10" class="edge">
<title>2&#45;&gt;10</title>
<path fill="none" stroke="#000000" d="M362.0811,-460.8796C367.6605,-452.1434 373.6019,-442.8404 379.3595,-433.8253"/>
<polygon fill="#000000" stroke="#000000" points="382.3726,-435.6098 384.8054,-425.2981 376.4731,-431.8421 382.3726,-435.6098"/>
</g>
<!-- 4 -->
<g id="node5" class="node">
<title>4</title>
<path fill="#39e581" stroke="#000000" d="M160,-298.5C160,-298.5 61,-298.5 61,-298.5 55,-298.5 49,-292.5 49,-286.5 49,-286.5 49,-242.5 49,-242.5 49,-236.5 55,-230.5 61,-230.5 61,-230.5 160,-230.5 160,-230.5 166,-230.5 172,-236.5 172,-242.5 172,-242.5 172,-286.5 172,-286.5 172,-292.5 166,-298.5 160,-298.5"/>
<text text-anchor="start" x="81" y="-283.3" font-family="Helvetica,sans-Serif" font-size="14.00" fill="#000000">gini = 0.0</text>
<text text-anchor="start" x="66.5" y="-268.3" font-family="Helvetica,sans-Serif" font-size="14.00" fill="#000000">samples = 35</text>
<text text-anchor="start" x="57" y="-253.3" font-family="Helvetica,sans-Serif" font-size="14.00" fill="#000000">value = [0, 35, 0]</text>
<text text-anchor="start" x="81.5" y="-238.3" font-family="Helvetica,sans-Serif" font-size="14.00" fill="#000000">class = a</text>
</g>
<!-- 3&#45;&gt;4 -->
<g id="edge4" class="edge">
<title>3&#45;&gt;4</title>
<path fill="none" stroke="#000000" d="M206.7368,-341.8796C191.9669,-330.0038 175.8941,-317.0804 161.1892,-305.2568"/>
<polygon fill="#000000" stroke="#000000" points="163.1639,-302.3535 153.1774,-298.8149 158.7775,-307.8088 163.1639,-302.3535"/>
</g>
<!-- 5 -->
<g id="node6" class="node">
<title>5</title>
<path fill="#a06aec" stroke="#000000" d="M317,-306C317,-306 202,-306 202,-306 196,-306 190,-300 190,-294 190,-294 190,-235 190,-235 190,-229 196,-223 202,-223 202,-223 317,-223 317,-223 323,-223 329,-229 329,-235 329,-235 329,-294 329,-294 329,-300 323,-306 317,-306"/>
<text text-anchor="start" x="198" y="-290.8" font-family="Helvetica,sans-Serif" font-size="14.00" fill="#000000">sepal.length ≤ 6.05</text>
<text text-anchor="start" x="226" y="-275.8" font-family="Helvetica,sans-Serif" font-size="14.00" fill="#000000">gini = 0.32</text>
<text text-anchor="start" x="220" y="-260.8" font-family="Helvetica,sans-Serif" font-size="14.00" fill="#000000">samples = 5</text>
<text text-anchor="start" x="210" y="-245.8" font-family="Helvetica,sans-Serif" font-size="14.00" fill="#000000">value = [0, 1, 4]</text>
<text text-anchor="start" x="232" y="-230.8" font-family="Helvetica,sans-Serif" font-size="14.00" fill="#000000">class = r</text>
</g>
<!-- 3&#45;&gt;5 -->
<g id="edge5" class="edge">
<title>3&#45;&gt;5</title>
<path fill="none" stroke="#000000" d="M258.8498,-341.8796C258.9186,-333.6838 258.9917,-324.9891 259.063,-316.5013"/>
<polygon fill="#000000" stroke="#000000" points="262.5645,-316.3272 259.1488,-306.2981 255.5648,-316.2683 262.5645,-316.3272"/>
</g>
<!-- 6 -->
<g id="node7" class="node">
<title>6</title>
<path fill="#ffffff" stroke="#000000" d="M176,-187C176,-187 71,-187 71,-187 65,-187 59,-181 59,-175 59,-175 59,-116 59,-116 59,-110 65,-104 71,-104 71,-104 176,-104 176,-104 182,-104 188,-110 188,-116 188,-116 188,-175 188,-175 188,-181 182,-187 176,-187"/>
<text text-anchor="start" x="67" y="-171.8" font-family="Helvetica,sans-Serif" font-size="14.00" fill="#000000">petal.width ≤ 1.55</text>
<text text-anchor="start" x="94" y="-156.8" font-family="Helvetica,sans-Serif" font-size="14.00" fill="#000000">gini = 0.5</text>
<text text-anchor="start" x="84" y="-141.8" font-family="Helvetica,sans-Serif" font-size="14.00" fill="#000000">samples = 2</text>
<text text-anchor="start" x="74" y="-126.8" font-family="Helvetica,sans-Serif" font-size="14.00" fill="#000000">value = [0, 1, 1]</text>
<text text-anchor="start" x="94.5" y="-111.8" font-family="Helvetica,sans-Serif" font-size="14.00" fill="#000000">class = a</text>
</g>
<!-- 5&#45;&gt;6 -->
<g id="edge6" class="edge">
<title>5&#45;&gt;6</title>
<path fill="none" stroke="#000000" d="M211.9338,-222.8796C201.3321,-213.6031 189.9998,-203.6874 179.1067,-194.1559"/>
<polygon fill="#000000" stroke="#000000" points="181.0998,-191.2491 171.2692,-187.2981 176.4902,-196.5172 181.0998,-191.2491"/>
</g>
<!-- 9 -->
<g id="node10" class="node">
<title>9</title>
<path fill="#8139e5" stroke="#000000" d="M309,-179.5C309,-179.5 218,-179.5 218,-179.5 212,-179.5 206,-173.5 206,-167.5 206,-167.5 206,-123.5 206,-123.5 206,-117.5 212,-111.5 218,-111.5 218,-111.5 309,-111.5 309,-111.5 315,-111.5 321,-117.5 321,-123.5 321,-123.5 321,-167.5 321,-167.5 321,-173.5 315,-179.5 309,-179.5"/>
<text text-anchor="start" x="234" y="-164.3" font-family="Helvetica,sans-Serif" font-size="14.00" fill="#000000">gini = 0.0</text>
<text text-anchor="start" x="224" y="-149.3" font-family="Helvetica,sans-Serif" font-size="14.00" fill="#000000">samples = 3</text>
<text text-anchor="start" x="214" y="-134.3" font-family="Helvetica,sans-Serif" font-size="14.00" fill="#000000">value = [0, 0, 3]</text>
<text text-anchor="start" x="236" y="-119.3" font-family="Helvetica,sans-Serif" font-size="14.00" fill="#000000">class = r</text>
</g>
<!-- 5&#45;&gt;9 -->
<g id="edge9" class="edge">
<title>5&#45;&gt;9</title>
<path fill="none" stroke="#000000" d="M260.899,-222.8796C261.2575,-212.2134 261.6445,-200.7021 262.0075,-189.9015"/>
<polygon fill="#000000" stroke="#000000" points="265.5085,-189.9269 262.3466,-179.8149 258.5125,-189.6917 265.5085,-189.9269"/>
</g>
<!-- 7 -->
<g id="node8" class="node">
<title>7</title>
<path fill="#8139e5" stroke="#000000" d="M103,-68C103,-68 12,-68 12,-68 6,-68 0,-62 0,-56 0,-56 0,-12 0,-12 0,-6 6,0 12,0 12,0 103,0 103,0 109,0 115,-6 115,-12 115,-12 115,-56 115,-56 115,-62 109,-68 103,-68"/>
<text text-anchor="start" x="28" y="-52.8" font-family="Helvetica,sans-Serif" font-size="14.00" fill="#000000">gini = 0.0</text>
<text text-anchor="start" x="18" y="-37.8" font-family="Helvetica,sans-Serif" font-size="14.00" fill="#000000">samples = 1</text>
<text text-anchor="start" x="8" y="-22.8" font-family="Helvetica,sans-Serif" font-size="14.00" fill="#000000">value = [0, 0, 1]</text>
<text text-anchor="start" x="30" y="-7.8" font-family="Helvetica,sans-Serif" font-size="14.00" fill="#000000">class = r</text>
</g>
<!-- 6&#45;&gt;7 -->
<g id="edge7" class="edge">
<title>6&#45;&gt;7</title>
<path fill="none" stroke="#000000" d="M98.924,-103.9815C93.7014,-95.1585 88.1771,-85.8258 82.9237,-76.9506"/>
<polygon fill="#000000" stroke="#000000" points="85.8874,-75.0863 77.7816,-68.2637 79.8636,-78.652 85.8874,-75.0863"/>
</g>
<!-- 8 -->
<g id="node9" class="node">
<title>8</title>
<path fill="#39e581" stroke="#000000" d="M236,-68C236,-68 145,-68 145,-68 139,-68 133,-62 133,-56 133,-56 133,-12 133,-12 133,-6 139,0 145,0 145,0 236,0 236,0 242,0 248,-6 248,-12 248,-12 248,-56 248,-56 248,-62 242,-68 236,-68"/>
<text text-anchor="start" x="161" y="-52.8" font-family="Helvetica,sans-Serif" font-size="14.00" fill="#000000">gini = 0.0</text>
<text text-anchor="start" x="151" y="-37.8" font-family="Helvetica,sans-Serif" font-size="14.00" fill="#000000">samples = 1</text>
<text text-anchor="start" x="141" y="-22.8" font-family="Helvetica,sans-Serif" font-size="14.00" fill="#000000">value = [0, 1, 0]</text>
<text text-anchor="start" x="161.5" y="-7.8" font-family="Helvetica,sans-Serif" font-size="14.00" fill="#000000">class = a</text>
</g>
<!-- 6&#45;&gt;8 -->
<g id="edge8" class="edge">
<title>6&#45;&gt;8</title>
<path fill="none" stroke="#000000" d="M148.4483,-103.9815C153.7501,-95.1585 159.3581,-85.8258 164.6911,-76.9506"/>
<polygon fill="#000000" stroke="#000000" points="167.7605,-78.638 169.9111,-68.2637 161.7604,-75.0325 167.7605,-78.638"/>
</g>
<!-- 11 -->
<g id="node12" class="node">
<title>11</title>
<path fill="#ab7bee" stroke="#000000" d="M461,-306C461,-306 360,-306 360,-306 354,-306 348,-300 348,-294 348,-294 348,-235 348,-235 348,-229 354,-223 360,-223 360,-223 461,-223 461,-223 467,-223 473,-229 473,-235 473,-235 473,-294 473,-294 473,-300 467,-306 461,-306"/>
<text text-anchor="start" x="356" y="-290.8" font-family="Helvetica,sans-Serif" font-size="14.00" fill="#000000">sepal.width ≤ 3.1</text>
<text text-anchor="start" x="372.5" y="-275.8" font-family="Helvetica,sans-Serif" font-size="14.00" fill="#000000">gini = 0.375</text>
<text text-anchor="start" x="371" y="-260.8" font-family="Helvetica,sans-Serif" font-size="14.00" fill="#000000">samples = 4</text>
<text text-anchor="start" x="361" y="-245.8" font-family="Helvetica,sans-Serif" font-size="14.00" fill="#000000">value = [0, 1, 3]</text>
<text text-anchor="start" x="383" y="-230.8" font-family="Helvetica,sans-Serif" font-size="14.00" fill="#000000">class = r</text>
</g>
<!-- 10&#45;&gt;11 -->
<g id="edge11" class="edge">
<title>10&#45;&gt;11</title>
<path fill="none" stroke="#000000" d="M411.1502,-341.8796C411.0814,-333.6838 411.0083,-324.9891 410.937,-316.5013"/>
<polygon fill="#000000" stroke="#000000" points="414.4352,-316.2683 410.8512,-306.2981 407.4355,-316.3272 414.4352,-316.2683"/>
</g>
<!-- 14 -->
<g id="node15" class="node">
<title>14</title>
<path fill="#8139e5" stroke="#000000" d="M602,-298.5C602,-298.5 503,-298.5 503,-298.5 497,-298.5 491,-292.5 491,-286.5 491,-286.5 491,-242.5 491,-242.5 491,-236.5 497,-230.5 503,-230.5 503,-230.5 602,-230.5 602,-230.5 608,-230.5 614,-236.5 614,-242.5 614,-242.5 614,-286.5 614,-286.5 614,-292.5 608,-298.5 602,-298.5"/>
<text text-anchor="start" x="523" y="-283.3" font-family="Helvetica,sans-Serif" font-size="14.00" fill="#000000">gini = 0.0</text>
<text text-anchor="start" x="508.5" y="-268.3" font-family="Helvetica,sans-Serif" font-size="14.00" fill="#000000">samples = 37</text>
<text text-anchor="start" x="499" y="-253.3" font-family="Helvetica,sans-Serif" font-size="14.00" fill="#000000">value = [0, 0, 37]</text>
<text text-anchor="start" x="525" y="-238.3" font-family="Helvetica,sans-Serif" font-size="14.00" fill="#000000">class = r</text>
</g>
<!-- 10&#45;&gt;14 -->
<g id="edge14" class="edge">
<title>10&#45;&gt;14</title>
<path fill="none" stroke="#000000" d="M460.815,-341.8796C474.756,-330.1138 489.9154,-317.3197 503.8188,-305.5855"/>
<polygon fill="#000000" stroke="#000000" points="506.4564,-307.9394 511.8411,-298.8149 501.9416,-302.5899 506.4564,-307.9394"/>
</g>
<!-- 12 -->
<g id="node13" class="node">
<title>12</title>
<path fill="#8139e5" stroke="#000000" d="M451,-179.5C451,-179.5 360,-179.5 360,-179.5 354,-179.5 348,-173.5 348,-167.5 348,-167.5 348,-123.5 348,-123.5 348,-117.5 354,-111.5 360,-111.5 360,-111.5 451,-111.5 451,-111.5 457,-111.5 463,-117.5 463,-123.5 463,-123.5 463,-167.5 463,-167.5 463,-173.5 457,-179.5 451,-179.5"/>
<text text-anchor="start" x="376" y="-164.3" font-family="Helvetica,sans-Serif" font-size="14.00" fill="#000000">gini = 0.0</text>
<text text-anchor="start" x="366" y="-149.3" font-family="Helvetica,sans-Serif" font-size="14.00" fill="#000000">samples = 3</text>
<text text-anchor="start" x="356" y="-134.3" font-family="Helvetica,sans-Serif" font-size="14.00" fill="#000000">value = [0, 0, 3]</text>
<text text-anchor="start" x="378" y="-119.3" font-family="Helvetica,sans-Serif" font-size="14.00" fill="#000000">class = r</text>
</g>
<!-- 11&#45;&gt;12 -->
<g id="edge12" class="edge">
<title>11&#45;&gt;12</title>
<path fill="none" stroke="#000000" d="M408.7512,-222.8796C408.3031,-212.2134 407.8194,-200.7021 407.3656,-189.9015"/>
<polygon fill="#000000" stroke="#000000" points="410.8586,-189.6592 406.9418,-179.8149 403.8648,-189.9531 410.8586,-189.6592"/>
</g>
<!-- 13 -->
<g id="node14" class="node">
<title>13</title>
<path fill="#39e581" stroke="#000000" d="M584,-179.5C584,-179.5 493,-179.5 493,-179.5 487,-179.5 481,-173.5 481,-167.5 481,-167.5 481,-123.5 481,-123.5 481,-117.5 487,-111.5 493,-111.5 493,-111.5 584,-111.5 584,-111.5 590,-111.5 596,-117.5 596,-123.5 596,-123.5 596,-167.5 596,-167.5 596,-173.5 590,-179.5 584,-179.5"/>
<text text-anchor="start" x="509" y="-164.3" font-family="Helvetica,sans-Serif" font-size="14.00" fill="#000000">gini = 0.0</text>
<text text-anchor="start" x="499" y="-149.3" font-family="Helvetica,sans-Serif" font-size="14.00" fill="#000000">samples = 1</text>
<text text-anchor="start" x="489" y="-134.3" font-family="Helvetica,sans-Serif" font-size="14.00" fill="#000000">value = [0, 1, 0]</text>
<text text-anchor="start" x="509.5" y="-119.3" font-family="Helvetica,sans-Serif" font-size="14.00" fill="#000000">class = a</text>
</g>
<!-- 11&#45;&gt;13 -->
<g id="edge13" class="edge">
<title>11&#45;&gt;13</title>
<path fill="none" stroke="#000000" d="M455.2682,-222.8796C467.8056,-211.2237 481.4284,-198.5587 493.953,-186.9148"/>
<polygon fill="#000000" stroke="#000000" points="496.6491,-189.1872 501.5898,-179.8149 491.8828,-184.0605 496.6491,-189.1872"/>
</g>
</g>
</svg>
