<?xml version="1.0" encoding="UTF-8" standalone="no"?>
<!DOCTYPE svg PUBLIC "-//W3C//DTD SVG 1.1//EN"
 "http://www.w3.org/Graphics/SVG/1.1/DTD/svg11.dtd">
<!-- Generated by graphviz version 2.40.1 (20161225.0304)
 -->
<!-- Title: Tree Pages: 1 -->
<svg width="566pt" height="671pt"
 viewBox="0.00 0.00 566.00 671.00" xmlns="http://www.w3.org/2000/svg" xmlns:xlink="http://www.w3.org/1999/xlink">
<g id="graph0" class="graph" transform="scale(1 1) rotate(0) translate(4 667)">
<title>Tree</title>
<polygon fill="#ffffff" stroke="transparent" points="-4,4 -4,-667 562,-667 562,4 -4,4"/>
<!-- 0 -->
<g id="node1" class="node">
<title>0</title>
<path fill="#f7f3fd" stroke="#000000" d="M265.5,-663C265.5,-663 149.5,-663 149.5,-663 143.5,-663 137.5,-657 137.5,-651 137.5,-651 137.5,-592 137.5,-592 137.5,-586 143.5,-580 149.5,-580 149.5,-580 265.5,-580 265.5,-580 271.5,-580 277.5,-586 277.5,-592 277.5,-592 277.5,-651 277.5,-651 277.5,-657 271.5,-663 265.5,-663"/>
<text text-anchor="start" x="152" y="-647.8" font-family="Helvetica,sans-Serif" font-size="14.00" fill="#000000">petal.length ≤ 2.6</text>
<text text-anchor="start" x="169.5" y="-632.8" font-family="Helvetica,sans-Serif" font-size="14.00" fill="#000000">gini = 0.665</text>
<text text-anchor="start" x="159.5" y="-617.8" font-family="Helvetica,sans-Serif" font-size="14.00" fill="#000000">samples = 120</text>
<text text-anchor="start" x="145.5" y="-602.8" font-family="Helvetica,sans-Serif" font-size="14.00" fill="#000000">value = [39, 37, 44]</text>
<text text-anchor="start" x="180" y="-587.8" font-family="Helvetica,sans-Serif" font-size="14.00" fill="#000000">class = r</text>
</g>
<!-- 1 -->
<g id="node2" class="node">
<title>1</title>
<path fill="#e58139" stroke="#000000" d="M185,-536.5C185,-536.5 86,-536.5 86,-536.5 80,-536.5 74,-530.5 74,-524.5 74,-524.5 74,-480.5 74,-480.5 74,-474.5 80,-468.5 86,-468.5 86,-468.5 185,-468.5 185,-468.5 191,-468.5 197,-474.5 197,-480.5 197,-480.5 197,-524.5 197,-524.5 197,-530.5 191,-536.5 185,-536.5"/>
<text text-anchor="start" x="106" y="-521.3" font-family="Helvetica,sans-Serif" font-size="14.00" fill="#000000">gini = 0.0</text>
<text text-anchor="start" x="91.5" y="-506.3" font-family="Helvetica,sans-Serif" font-size="14.00" fill="#000000">samples = 39</text>
<text text-anchor="start" x="82" y="-491.3" font-family="Helvetica,sans-Serif" font-size="14.00" fill="#000000">value = [39, 0, 0]</text>
<text text-anchor="start" x="106.5" y="-476.3" font-family="Helvetica,sans-Serif" font-size="14.00" fill="#000000">class = v</text>
</g>
<!-- 0&#45;&gt;1 -->
<g id="edge1" class="edge">
<title>0&#45;&gt;1</title>
<path fill="none" stroke="#000000" d="M182.3179,-579.8796C175.5983,-568.7735 168.3243,-556.7513 161.5586,-545.5691"/>
<polygon fill="#000000" stroke="#000000" points="164.4332,-543.5589 156.262,-536.8149 158.4441,-547.1826 164.4332,-543.5589"/>
<text text-anchor="middle" x="150.2883" y="-557.3908" font-family="Helvetica,sans-Serif" font-size="14.00" fill="#000000">True</text>
</g>
<!-- 2 -->
<g id="node3" class="node">
<title>2</title>
<path fill="#ebe0fb" stroke="#000000" d="M334,-544C334,-544 227,-544 227,-544 221,-544 215,-538 215,-532 215,-532 215,-473 215,-473 215,-467 221,-461 227,-461 227,-461 334,-461 334,-461 340,-461 346,-467 346,-473 346,-473 346,-532 346,-532 346,-538 340,-544 334,-544"/>
<text text-anchor="start" x="224" y="-528.8" font-family="Helvetica,sans-Serif" font-size="14.00" fill="#000000">petal.width ≤ 1.65</text>
<text text-anchor="start" x="242.5" y="-513.8" font-family="Helvetica,sans-Serif" font-size="14.00" fill="#000000">gini = 0.496</text>
<text text-anchor="start" x="236.5" y="-498.8" font-family="Helvetica,sans-Serif" font-size="14.00" fill="#000000">samples = 81</text>
<text text-anchor="start" x="223" y="-483.8" font-family="Helvetica,sans-Serif" font-size="14.00" fill="#000000">value = [0, 37, 44]</text>
<text text-anchor="start" x="253" y="-468.8" font-family="Helvetica,sans-Serif" font-size="14.00" fill="#000000">class = r</text>
</g>
<!-- 0&#45;&gt;2 -->
<g id="edge2" class="edge">
<title>0&#45;&gt;2</title>
<path fill="none" stroke="#000000" d="M233.0319,-579.8796C238.391,-571.1434 244.0979,-561.8404 249.6282,-552.8253"/>
<polygon fill="#000000" stroke="#000000" points="252.6135,-554.6522 254.8592,-544.2981 246.6467,-550.9919 252.6135,-554.6522"/>
<text text-anchor="middle" x="260.6839" y="-564.9101" font-family="Helvetica,sans-Serif" font-size="14.00" fill="#000000">False</text>
</g>
<!-- 3 -->
<g id="node4" class="node">
<title>3</title>
<path fill="#4fe88f" stroke="#000000" d="M259,-425C259,-425 148,-425 148,-425 142,-425 136,-419 136,-413 136,-413 136,-354 136,-354 136,-348 142,-342 148,-342 148,-342 259,-342 259,-342 265,-342 271,-348 271,-354 271,-354 271,-413 271,-413 271,-419 265,-425 259,-425"/>
<text text-anchor="start" x="144" y="-409.8" font-family="Helvetica,sans-Serif" font-size="14.00" fill="#000000">petal.length ≤ 4.95</text>
<text text-anchor="start" x="170" y="-394.8" font-family="Helvetica,sans-Serif" font-size="14.00" fill="#000000">gini = 0.18</text>
<text text-anchor="start" x="159.5" y="-379.8" font-family="Helvetica,sans-Serif" font-size="14.00" fill="#000000">samples = 40</text>
<text text-anchor="start" x="150" y="-364.8" font-family="Helvetica,sans-Serif" font-size="14.00" fill="#000000">value = [0, 36, 4]</text>
<text text-anchor="start" x="174.5" y="-349.8" font-family="Helvetica,sans-Serif" font-size="14.00" fill="#000000">class = a</text>
</g>
<!-- 2&#45;&gt;3 -->
<g id="edge3" class="edge">
<title>2&#45;&gt;3</title>
<path fill="none" stroke="#000000" d="M253.5691,-460.8796C247.9163,-452.1434 241.8967,-442.8404 236.0634,-433.8253"/>
<polygon fill="#000000" stroke="#000000" points="238.9169,-431.7924 230.5458,-425.2981 233.0399,-435.5952 238.9169,-431.7924"/>
</g>
<!-- 10 -->
<g id="node11" class="node">
<title>10</title>
<path fill="#843ee6" stroke="#000000" d="M412,-425C412,-425 301,-425 301,-425 295,-425 289,-419 289,-413 289,-413 289,-354 289,-354 289,-348 295,-342 301,-342 301,-342 412,-342 412,-342 418,-342 424,-348 424,-354 424,-354 424,-413 424,-413 424,-419 418,-425 412,-425"/>
<text text-anchor="start" x="297" y="-409.8" font-family="Helvetica,sans-Serif" font-size="14.00" fill="#000000">petal.length ≤ 4.85</text>
<text text-anchor="start" x="318.5" y="-394.8" font-family="Helvetica,sans-Serif" font-size="14.00" fill="#000000">gini = 0.048</text>
<text text-anchor="start" x="312.5" y="-379.8" font-family="Helvetica,sans-Serif" font-size="14.00" fill="#000000">samples = 41</text>
<text text-anchor="start" x="303" y="-364.8" font-family="Helvetica,sans-Serif" font-size="14.00" fill="#000000">value = [0, 1, 40]</text>
<text text-anchor="start" x="329" y="-349.8" font-family="Helvetica,sans-Serif" font-size="14.00" fill="#000000">class = r</text>
</g>
<!-- 2&#45;&gt;10 -->
<g id="edge10" class="edge">
<title>2&#45;&gt;10</title>
<path fill="none" stroke="#000000" d="M307.0811,-460.8796C312.6605,-452.1434 318.6019,-442.8404 324.3595,-433.8253"/>
<polygon fill="#000000" stroke="#000000" points="327.3726,-435.6098 329.8054,-425.2981 321.4731,-431.8421 327.3726,-435.6098"/>
</g>
<!-- 4 -->
<g id="node5" class="node">
<title>4</title>
<path fill="#39e581" stroke="#000000" d="M111,-298.5C111,-298.5 12,-298.5 12,-298.5 6,-298.5 0,-292.5 0,-286.5 0,-286.5 0,-242.5 0,-242.5 0,-236.5 6,-230.5 12,-230.5 12,-230.5 111,-230.5 111,-230.5 117,-230.5 123,-236.5 123,-242.5 123,-242.5 123,-286.5 123,-286.5 123,-292.5 117,-298.5 111,-298.5"/>
<text text-anchor="start" x="32" y="-283.3" font-family="Helvetica,sans-Serif" font-size="14.00" fill="#000000">gini = 0.0</text>
<text text-anchor="start" x="17.5" y="-268.3" font-family="Helvetica,sans-Serif" font-size="14.00" fill="#000000">samples = 35</text>
<text text-anchor="start" x="8" y="-253.3" font-family="Helvetica,sans-Serif" font-size="14.00" fill="#000000">value = [0, 35, 0]</text>
<text text-anchor="start" x="32.5" y="-238.3" font-family="Helvetica,sans-Serif" font-size="14.00" fill="#000000">class = a</text>
</g>
<!-- 3&#45;&gt;4 -->
<g id="edge4" class="edge">
<title>3&#45;&gt;4</title>
<path fill="none" stroke="#000000" d="M153.8353,-341.8796C139.6642,-330.0038 124.243,-317.0804 110.1342,-305.2568"/>
<polygon fill="#000000" stroke="#000000" points="112.3598,-302.5554 102.4472,-298.8149 107.8637,-307.9206 112.3598,-302.5554"/>
</g>
<!-- 5 -->
<g id="node6" class="node">
<title>5</title>
<path fill="#a06aec" stroke="#000000" d="M258,-306C258,-306 153,-306 153,-306 147,-306 141,-300 141,-294 141,-294 141,-235 141,-235 141,-229 147,-223 153,-223 153,-223 258,-223 258,-223 264,-223 270,-229 270,-235 270,-235 270,-294 270,-294 270,-300 264,-306 258,-306"/>
<text text-anchor="start" x="149" y="-290.8" font-family="Helvetica,sans-Serif" font-size="14.00" fill="#000000">petal.width ≤ 1.55</text>
<text text-anchor="start" x="172" y="-275.8" font-family="Helvetica,sans-Serif" font-size="14.00" fill="#000000">gini = 0.32</text>
<text text-anchor="start" x="166" y="-260.8" font-family="Helvetica,sans-Serif" font-size="14.00" fill="#000000">samples = 5</text>
<text text-anchor="start" x="156" y="-245.8" font-family="Helvetica,sans-Serif" font-size="14.00" fill="#000000">value = [0, 1, 4]</text>
<text text-anchor="start" x="178" y="-230.8" font-family="Helvetica,sans-Serif" font-size="14.00" fill="#000000">class = r</text>
</g>
<!-- 3&#45;&gt;5 -->
<g id="edge5" class="edge">
<title>3&#45;&gt;5</title>
<path fill="none" stroke="#000000" d="M204.1995,-341.8796C204.3372,-333.6838 204.4834,-324.9891 204.626,-316.5013"/>
<polygon fill="#000000" stroke="#000000" points="208.1289,-316.3555 204.7975,-306.2981 201.1299,-316.2378 208.1289,-316.3555"/>
</g>
<!-- 6 -->
<g id="node7" class="node">
<title>6</title>
<path fill="#8139e5" stroke="#000000" d="M111,-179.5C111,-179.5 20,-179.5 20,-179.5 14,-179.5 8,-173.5 8,-167.5 8,-167.5 8,-123.5 8,-123.5 8,-117.5 14,-111.5 20,-111.5 20,-111.5 111,-111.5 111,-111.5 117,-111.5 123,-117.5 123,-123.5 123,-123.5 123,-167.5 123,-167.5 123,-173.5 117,-179.5 111,-179.5"/>
<text text-anchor="start" x="36" y="-164.3" font-family="Helvetica,sans-Serif" font-size="14.00" fill="#000000">gini = 0.0</text>
<text text-anchor="start" x="26" y="-149.3" font-family="Helvetica,sans-Serif" font-size="14.00" fill="#000000">samples = 3</text>
<text text-anchor="start" x="16" y="-134.3" font-family="Helvetica,sans-Serif" font-size="14.00" fill="#000000">value = [0, 0, 3]</text>
<text text-anchor="start" x="38" y="-119.3" font-family="Helvetica,sans-Serif" font-size="14.00" fill="#000000">class = r</text>
</g>
<!-- 5&#45;&gt;6 -->
<g id="edge6" class="edge">
<title>5&#45;&gt;6</title>
<path fill="none" stroke="#000000" d="M156.5348,-222.8796C142.6927,-211.1138 127.6408,-198.3197 113.8359,-186.5855"/>
<polygon fill="#000000" stroke="#000000" points="115.7567,-183.6247 105.8705,-179.8149 111.2231,-188.9582 115.7567,-183.6247"/>
</g>
<!-- 7 -->
<g id="node8" class="node">
<title>7</title>
<path fill="#ffffff" stroke="#000000" d="M262,-187C262,-187 153,-187 153,-187 147,-187 141,-181 141,-175 141,-175 141,-116 141,-116 141,-110 147,-104 153,-104 153,-104 262,-104 262,-104 268,-104 274,-110 274,-116 274,-116 274,-175 274,-175 274,-181 268,-187 262,-187"/>
<text text-anchor="start" x="149" y="-171.8" font-family="Helvetica,sans-Serif" font-size="14.00" fill="#000000">sepal.width ≤ 2.85</text>
<text text-anchor="start" x="178" y="-156.8" font-family="Helvetica,sans-Serif" font-size="14.00" fill="#000000">gini = 0.5</text>
<text text-anchor="start" x="168" y="-141.8" font-family="Helvetica,sans-Serif" font-size="14.00" fill="#000000">samples = 2</text>
<text text-anchor="start" x="158" y="-126.8" font-family="Helvetica,sans-Serif" font-size="14.00" fill="#000000">value = [0, 1, 1]</text>
<text text-anchor="start" x="178.5" y="-111.8" font-family="Helvetica,sans-Serif" font-size="14.00" fill="#000000">class = a</text>
</g>
<!-- 5&#45;&gt;7 -->
<g id="edge7" class="edge">
<title>5&#45;&gt;7</title>
<path fill="none" stroke="#000000" d="M206.1995,-222.8796C206.3372,-214.6838 206.4834,-205.9891 206.626,-197.5013"/>
<polygon fill="#000000" stroke="#000000" points="210.1289,-197.3555 206.7975,-187.2981 203.1299,-197.2378 210.1289,-197.3555"/>
</g>
<!-- 8 -->
<g id="node9" class="node">
<title>8</title>
<path fill="#39e581" stroke="#000000" d="M186,-68C186,-68 95,-68 95,-68 89,-68 83,-62 83,-56 83,-56 83,-12 83,-12 83,-6 89,0 95,0 95,0 186,0 186,0 192,0 198,-6 198,-12 198,-12 198,-56 198,-56 198,-62 192,-68 186,-68"/>
<text text-anchor="start" x="111" y="-52.8" font-family="Helvetica,sans-Serif" font-size="14.00" fill="#000000">gini = 0.0</text>
<text text-anchor="start" x="101" y="-37.8" font-family="Helvetica,sans-Serif" font-size="14.00" fill="#000000">samples = 1</text>
<text text-anchor="start" x="91" y="-22.8" font-family="Helvetica,sans-Serif" font-size="14.00" fill="#000000">value = [0, 1, 0]</text>
<text text-anchor="start" x="111.5" y="-7.8" font-family="Helvetica,sans-Serif" font-size="14.00" fill="#000000">class = a</text>
</g>
<!-- 7&#45;&gt;8 -->
<g id="edge8" class="edge">
<title>7&#45;&gt;8</title>
<path fill="none" stroke="#000000" d="M182.5517,-103.9815C177.2499,-95.1585 171.6419,-85.8258 166.3089,-76.9506"/>
<polygon fill="#000000" stroke="#000000" points="169.2396,-75.0325 161.0889,-68.2637 163.2395,-78.638 169.2396,-75.0325"/>
</g>
<!-- 9 -->
<g id="node10" class="node">
<title>9</title>
<path fill="#8139e5" stroke="#000000" d="M319,-68C319,-68 228,-68 228,-68 222,-68 216,-62 216,-56 216,-56 216,-12 216,-12 216,-6 222,0 228,0 228,0 319,0 319,0 325,0 331,-6 331,-12 331,-12 331,-56 331,-56 331,-62 325,-68 319,-68"/>
<text text-anchor="start" x="244" y="-52.8" font-family="Helvetica,sans-Serif" font-size="14.00" fill="#000000">gini = 0.0</text>
<text text-anchor="start" x="234" y="-37.8" font-family="Helvetica,sans-Serif" font-size="14.00" fill="#000000">samples = 1</text>
<text text-anchor="start" x="224" y="-22.8" font-family="Helvetica,sans-Serif" font-size="14.00" fill="#000000">value = [0, 0, 1]</text>
<text text-anchor="start" x="246" y="-7.8" font-family="Helvetica,sans-Serif" font-size="14.00" fill="#000000">class = r</text>
</g>
<!-- 7&#45;&gt;9 -->
<g id="edge9" class="edge">
<title>7&#45;&gt;9</title>
<path fill="none" stroke="#000000" d="M232.076,-103.9815C237.2986,-95.1585 242.8229,-85.8258 248.0763,-76.9506"/>
<polygon fill="#000000" stroke="#000000" points="251.1364,-78.652 253.2184,-68.2637 245.1126,-75.0863 251.1364,-78.652"/>
</g>
<!-- 11 -->
<g id="node12" class="node">
<title>11</title>
<path fill="#ab7bee" stroke="#000000" d="M405,-306C405,-306 304,-306 304,-306 298,-306 292,-300 292,-294 292,-294 292,-235 292,-235 292,-229 298,-223 304,-223 304,-223 405,-223 405,-223 411,-223 417,-229 417,-235 417,-235 417,-294 417,-294 417,-300 411,-306 405,-306"/>
<text text-anchor="start" x="300" y="-290.8" font-family="Helvetica,sans-Serif" font-size="14.00" fill="#000000">sepal.width ≤ 3.1</text>
<text text-anchor="start" x="316.5" y="-275.8" font-family="Helvetica,sans-Serif" font-size="14.00" fill="#000000">gini = 0.375</text>
<text text-anchor="start" x="315" y="-260.8" font-family="Helvetica,sans-Serif" font-size="14.00" fill="#000000">samples = 4</text>
<text text-anchor="start" x="305" y="-245.8" font-family="Helvetica,sans-Serif" font-size="14.00" fill="#000000">value = [0, 1, 3]</text>
<text text-anchor="start" x="327" y="-230.8" font-family="Helvetica,sans-Serif" font-size="14.00" fill="#000000">class = r</text>
</g>
<!-- 10&#45;&gt;11 -->
<g id="edge11" class="edge">
<title>10&#45;&gt;11</title>
<path fill="none" stroke="#000000" d="M355.8005,-341.8796C355.6628,-333.6838 355.5166,-324.9891 355.374,-316.5013"/>
<polygon fill="#000000" stroke="#000000" points="358.8701,-316.2378 355.2025,-306.2981 351.8711,-316.3555 358.8701,-316.2378"/>
</g>
<!-- 14 -->
<g id="node15" class="node">
<title>14</title>
<path fill="#8139e5" stroke="#000000" d="M546,-298.5C546,-298.5 447,-298.5 447,-298.5 441,-298.5 435,-292.5 435,-286.5 435,-286.5 435,-242.5 435,-242.5 435,-236.5 441,-230.5 447,-230.5 447,-230.5 546,-230.5 546,-230.5 552,-230.5 558,-236.5 558,-242.5 558,-242.5 558,-286.5 558,-286.5 558,-292.5 552,-298.5 546,-298.5"/>
<text text-anchor="start" x="467" y="-283.3" font-family="Helvetica,sans-Serif" font-size="14.00" fill="#000000">gini = 0.0</text>
<text text-anchor="start" x="452.5" y="-268.3" font-family="Helvetica,sans-Serif" font-size="14.00" fill="#000000">samples = 37</text>
<text text-anchor="start" x="443" y="-253.3" font-family="Helvetica,sans-Serif" font-size="14.00" fill="#000000">value = [0, 0, 37]</text>
<text text-anchor="start" x="469" y="-238.3" font-family="Helvetica,sans-Serif" font-size="14.00" fill="#000000">class = r</text>
</g>
<!-- 10&#45;&gt;14 -->
<g id="edge14" class="edge">
<title>10&#45;&gt;14</title>
<path fill="none" stroke="#000000" d="M405.4652,-341.8796C419.3073,-330.1138 434.3592,-317.3197 448.1641,-305.5855"/>
<polygon fill="#000000" stroke="#000000" points="450.7769,-307.9582 456.1295,-298.8149 446.2433,-302.6247 450.7769,-307.9582"/>
</g>
<!-- 12 -->
<g id="node13" class="node">
<title>12</title>
<path fill="#8139e5" stroke="#000000" d="M398,-179.5C398,-179.5 307,-179.5 307,-179.5 301,-179.5 295,-173.5 295,-167.5 295,-167.5 295,-123.5 295,-123.5 295,-117.5 301,-111.5 307,-111.5 307,-111.5 398,-111.5 398,-111.5 404,-111.5 410,-117.5 410,-123.5 410,-123.5 410,-167.5 410,-167.5 410,-173.5 404,-179.5 398,-179.5"/>
<text text-anchor="start" x="323" y="-164.3" font-family="Helvetica,sans-Serif" font-size="14.00" fill="#000000">gini = 0.0</text>
<text text-anchor="start" x="313" y="-149.3" font-family="Helvetica,sans-Serif" font-size="14.00" fill="#000000">samples = 3</text>
<text text-anchor="start" x="303" y="-134.3" font-family="Helvetica,sans-Serif" font-size="14.00" fill="#000000">value = [0, 0, 3]</text>
<text text-anchor="start" x="325" y="-119.3" font-family="Helvetica,sans-Serif" font-size="14.00" fill="#000000">class = r</text>
</g>
<!-- 11&#45;&gt;12 -->
<g id="edge12" class="edge">
<title>11&#45;&gt;12</title>
<path fill="none" stroke="#000000" d="M353.8005,-222.8796C353.6212,-212.2134 353.4278,-200.7021 353.2462,-189.9015"/>
<polygon fill="#000000" stroke="#000000" points="356.7444,-189.7547 353.0767,-179.8149 349.7454,-189.8724 356.7444,-189.7547"/>
</g>
<!-- 13 -->
<g id="node14" class="node">
<title>13</title>
<path fill="#39e581" stroke="#000000" d="M531,-179.5C531,-179.5 440,-179.5 440,-179.5 434,-179.5 428,-173.5 428,-167.5 428,-167.5 428,-123.5 428,-123.5 428,-117.5 434,-111.5 440,-111.5 440,-111.5 531,-111.5 531,-111.5 537,-111.5 543,-117.5 543,-123.5 543,-123.5 543,-167.5 543,-167.5 543,-173.5 537,-179.5 531,-179.5"/>
<text text-anchor="start" x="456" y="-164.3" font-family="Helvetica,sans-Serif" font-size="14.00" fill="#000000">gini = 0.0</text>
<text text-anchor="start" x="446" y="-149.3" font-family="Helvetica,sans-Serif" font-size="14.00" fill="#000000">samples = 1</text>
<text text-anchor="start" x="436" y="-134.3" font-family="Helvetica,sans-Serif" font-size="14.00" fill="#000000">value = [0, 1, 0]</text>
<text text-anchor="start" x="456.5" y="-119.3" font-family="Helvetica,sans-Serif" font-size="14.00" fill="#000000">class = a</text>
</g>
<!-- 11&#45;&gt;13 -->
<g id="edge13" class="edge">
<title>11&#45;&gt;13</title>
<path fill="none" stroke="#000000" d="M400.3174,-222.8796C413.2697,-211.1138 427.354,-198.3197 440.2714,-186.5855"/>
<polygon fill="#000000" stroke="#000000" points="442.6761,-189.1296 447.7247,-179.8149 437.9694,-183.9482 442.6761,-189.1296"/>
</g>
</g>
</svg>
